<svg xmlns="http://www.w3.org/2000/svg" width="486" height="123" viewBox="0 0 486 123" role="img" aria-label="UAB monogram">
  <path fill="#FFFFFF" fill-rule="evenodd" clip-rule="evenodd" d="M 131.000 122.083 L 134.000 121.185 L 138.000 119.414 L 141.766 117.000 L 145.000 114.328 L 147.216 112.000 L 150.141 108.000 L 152.217 104.000 L 153.487 100.000 L 154.208 95.000 L 154.208 0.000 L 154.000 -0.208 L 153.000 -0.500 L 113.000 -0.500 L 112.000 -0.482 L 111.345 0.000 L 111.319 76.000 L 110.459 79.000 L 109.316 81.000 L 108.000 82.478 L 107.000 83.364 L 105.000 84.473 L 102.000 85.056 L 51.000 85.019 L 48.000 84.234 L 46.240 83.000 L 43.652 80.000 L 42.719 78.000 L 42.402 76.000 L 42.393 0.000 L 42.000 -0.366 L 41.000 -0.500 L 1.000 -0.500 L 0.000 -0.500 L -0.500 0.000 L -0.384 98.000 L 0.664 102.000 L 2.897 107.000 L 5.596 111.000 L 9.395 115.000 L 12.000 117.168 L 17.000 120.108 L 23.000 122.203 L 25.000 122.450 L 127.000 122.500 Z
    M 329.000 122.433 L 329.530 122.000 L 329.063 121.000 L 264.188 3.000 L 262.524 0.000 L 262.000 -0.431 L 261.000 -0.500 L 214.000 -0.500 L 213.000 -0.332 L 212.639 0.000 L 145.634 122.000 L 146.000 122.336 L 147.000 122.500 L 195.000 122.496 L 196.000 121.731 L 204.611 104.000 L 205.000 103.592 L 206.000 103.408 L 269.000 103.410 L 270.000 103.489 L 271.128 105.000 L 278.842 121.000 L 279.366 122.000 L 280.000 122.471 Z
    M 448.000 122.127 L 454.000 121.194 L 462.000 119.108 L 468.000 116.481 L 473.000 113.288 L 477.430 109.000 L 480.290 105.000 L 482.297 101.000 L 484.204 95.000 L 485.288 89.000 L 485.423 80.000 L 485.193 78.000 L 484.168 74.000 L 482.213 69.000 L 479.027 64.000 L 476.000 60.696 L 472.000 57.676 L 468.000 55.666 L 465.978 55.000 L 465.236 54.000 L 470.000 51.086 L 473.171 48.000 L 475.304 45.000 L 476.368 43.000 L 477.238 41.000 L 478.406 37.000 L 479.139 30.000 L 478.121 21.000 L 477.266 18.000 L 475.450 14.000 L 474.256 12.000 L 472.000 9.288 L 468.000 5.786 L 462.000 2.666 L 455.000 0.697 L 448.000 -0.288 L 334.000 -0.426 L 333.000 -0.390 L 332.497 0.000 L 332.395 122.000 L 333.000 122.469 L 334.000 122.500 L 440.000 122.500 Z
    M 421.637 45.000 L 418.000 45.426 L 381.000 45.445 L 380.039 45.000 L 379.833 44.000 L 380.000 30.250 L 381.000 29.595 L 416.000 29.605 L 420.000 29.807 L 424.000 30.681 L 426.000 31.761 L 427.255 33.000 L 428.230 35.000 L 428.390 39.000 L 427.275 42.000 L 426.000 43.303 L 424.000 44.393 Z
    M 253.389 69.000 L 253.000 69.373 L 252.000 69.469 L 223.000 69.472 L 221.772 69.000 L 237.000 37.421 L 238.000 37.055 L 238.505 38.000 L 253.152 68.000 Z
    M 426.490 92.000 L 422.000 92.521 L 381.000 92.530 L 379.938 92.000 L 379.839 91.000 L 379.885 74.000 L 381.000 73.378 L 422.000 73.397 L 426.000 73.740 L 429.000 74.730 L 431.859 77.000 L 433.127 79.000 L 433.700 82.000 L 433.593 85.000 L 433.115 87.000 L 432.000 88.817 L 431.000 89.853 L 429.000 91.208 Z
    M 476.000 115.470 L 477.000 114.250 L 478.204 114.000 L 477.000 113.891 L 475.815 115.000 Z
    M 481.000 121.197 L 483.000 119.212 L 483.135 118.000 L 483.079 116.000 L 481.000 113.828 L 480.167 114.000 L 481.000 114.259 L 482.875 116.000 L 482.885 118.000 L 482.843 119.000 L 480.489 121.000 Z
    M 480.000 119.064 L 480.250 118.000 L 480.000 117.013 L 479.000 117.804 L 478.390 117.000 L 478.365 116.000 L 478.000 115.360 L 477.734 116.000 L 477.850 119.000 L 478.000 119.250 L 479.000 118.109 Z
    M 475.000 118.350 L 475.000 116.757 Z
    M 477.000 121.168 L 477.717 121.000 L 477.000 120.728 L 476.000 119.595 L 475.789 120.000 Z"/>
</svg>
