<svg id="Layer_1" xmlns="http://www.w3.org/2000/svg" viewBox="0 0 242.4 38.8">
	<defs>
		<style>
			.cls-1 {
				fill: none;
			}

			.cls-1,
			.cls-2 {
				stroke-width: 0px;
			}

			.cls-2 {
				fill: #fff;
			}
		</style>
	</defs>
	<rect class="cls-2" x="49.68" y="30.09" width="29.5" height="4.5"></rect>
	<rect class="cls-2" x="62" y="8.8" width="4.8" height="17.9"></rect>
	<rect class="cls-2" x="70.2" y="8.8" width="4.8" height="17.9"></rect>
	<rect class="cls-2" x="53.9" y="8.8" width="4.8" height="17.9"></rect>
	<rect class="cls-2" x="49.69" y=".9" width="29.5" height="4.5"></rect>
	<path class="cls-2" d="m102.9.9v8.5c0,3.8-2.1,6-5.8,6s-5.8-2.2-5.8-6V.9h2.8v8.5c0,2.3,1,3.4,3,3.4s3-1.1,3-3.4V.9h2.8Z"></path>
	<path class="cls-2" d="m113.4,8.5v6.7h-2.7v-6.2c0-1.2-.5-1.9-1.5-1.9-1.1,0-1.8.9-1.8,2.5v5.5h-2.6V4.7h2.3l.2,1.3c.6-1,1.5-1.6,2.8-1.6,2.1.2,3.3,1.7,3.3,4.1Z"></path>
	<path class="cls-2" d="m118.2,1.8c0,.9-.7,1.6-1.6,1.6s-1.6-.7-1.6-1.6.7-1.6,1.6-1.6c.9,0,1.6.7,1.6,1.6Zm-.3,3v10.4h-2.7V4.8h2.7Z"></path>
	<path class="cls-2" d="m129.3,4.8l-3.8,10.4h-2.7l-3.7-10.4h2.9l2,6.4.2.9.2-.9,2-6.4h2.9Z"></path>
	<path class="cls-2" d="m139.9,10v.8h-7.2c.1,1.4,1,2.3,2.5,2.3,1.1,0,1.8-.4,2.1-1.2h2.6c-.7,2.2-2.3,3.5-4.7,3.5-1.5,0-2.8-.5-3.7-1.5s-1.4-2.3-1.4-3.9.5-2.9,1.4-3.9c1-1,2.2-1.5,3.7-1.5,2.8,0,4.7,1.8,4.7,5.4Zm-2.7-1c0-1.3-.9-2.2-2.2-2.2s-2.2.9-2.3,2.2h4.5Z"></path>
	<path class="cls-2" d="m146.9,7.4c-.8,0-1.5.2-2.1.6-.5.4-.8,1-.8,1.9v5.3h-2.7V4.8h2.3l.2,1.7c.4-1,1.4-1.8,3-1.8v2.7h.1Z"></path>
	<path class="cls-2" d="m155.9,7.9h-2.6c0-.8-.4-1.2-1.2-1.2-.7,0-1.1.4-1.1,1,0,.7.4.9,1.8,1.2,2.5.4,3.4,1.4,3.4,3.1,0,2.2-1.7,3.4-4,3.4-2.5,0-4-1.3-4-3.4h2.6c0,.8.5,1.3,1.5,1.3.8,0,1.3-.3,1.3-1s-.4-1-1.9-1.3c-2.3-.4-3.3-1.4-3.3-3.1,0-1,.3-1.8,1-2.4.7-.7,1.6-1,2.8-1,2.1.1,3.6,1.4,3.7,3.4Z"></path>
	<path class="cls-2" d="m160.8,1.8c0,.9-.7,1.6-1.6,1.6s-1.6-.7-1.6-1.6.7-1.6,1.6-1.6c.8,0,1.6.7,1.6,1.6Zm-.3,3v10.4h-2.7V4.8h2.7Z"></path>
	<path class="cls-2" d="m166.2,2.3v2.5h2.4v2.4h-2.4v4.2c0,1.1.3,1.5,1.3,1.5.4,0,.7,0,1.1-.1v2.3c-.4.1-1,.2-1.7.2-2.3,0-3.4-1-3.4-3.3v-4.8h-1.7v-2.4h1.7v-2.5h2.7Z"></path>
	<path class="cls-2" d="m179.7,4.8l-5.3,14.8h-2.8l1.6-4.5-3.7-10.2h2.9l2,6.4.2.9.2-.9,2-6.4h2.9v-.1Z"></path>
	<path class="cls-2" d="m193.5,6.1c1,1,1.6,2.3,1.6,3.9s-.5,2.9-1.6,3.9c-1,1-2.3,1.5-3.9,1.5s-2.9-.5-3.9-1.5-1.5-2.3-1.5-3.9.5-2.9,1.5-3.9,2.3-1.5,3.9-1.5,2.9.5,3.9,1.5Zm-5.8,1.8c-.5.6-.8,1.3-.8,2.1,0,.9.2,1.6.8,2.1.5.6,1.1.8,1.9.8,1.6,0,2.7-1.3,2.7-3s-1.1-3-2.7-3c-.8.1-1.4.4-1.9,1Z"></path>
	<path class="cls-2" d="m202.4.2v2.4c-.3-.1-.7-.2-1.1-.2-.9,0-1.4.5-1.4,1.4v1h2.4v2.4h-2.3v8h-2.7V7.2h-1.6v-2.4h1.6v-1.1c0-2.4,1.3-3.7,3.7-3.7.5,0,1,.1,1.4.2Z"></path>
	<path class="cls-2" d="m98.9,20.1l5.5,14.3h-3l-1.2-3.2h-5.7l-1.2,3.2h-3l5.5-14.3h3.1Zm-1.5,3.4l-.3.8-1.7,4.5h3.9l-1.7-4.5-.2-.8Z"></path>
	<path class="cls-2" d="m108.9,19.5v14.9h-2.7v-14.9h2.7Z"></path>
	<path class="cls-2" d="m119.3,27.6v6.8h-2.3l-.2-1.3c-.7,1-1.6,1.5-3,1.5-1.9,0-3.1-1.2-3.1-3,0-1.9,1.2-2.8,3.2-3.1l2.7-.5v-.4c0-1-.5-1.6-1.5-1.6-.9,0-1.6.6-1.6,1.4h-2.5c.1-2.1,1.7-3.6,4.1-3.6,2.6,0,4.2,1.3,4.2,3.8Zm-2.7,2.2l-2.1.4c-.8.2-1.2.6-1.2,1.2s.4,1,1.2,1c.7,0,1.3-.3,1.7-.9.2-.4.4-.8.4-1.4v-.3h0Z"></path>
	<path class="cls-2" d="m123.7,19.5v5.7c.7-.9,1.7-1.3,3.1-1.3s2.5.5,3.5,1.6c.9,1,1.4,2.3,1.4,3.8s-.5,2.8-1.4,3.9c-.9,1-2.1,1.6-3.4,1.6-1.5,0-2.6-.5-3.3-1.6l-.2,1.4h-2.4v-14.9h2.7v-.2Zm.7,7.6c-.5.5-.8,1.2-.8,2.1v.1c0,.9.3,1.6.8,2.1s1.1.8,1.8.8c1.5,0,2.6-1.2,2.6-2.9s-1.1-2.9-2.6-2.9c-.7-.1-1.3.1-1.8.7Z"></path>
	<path class="cls-2" d="m141.2,27.6v6.8h-2.2l-.2-1.3c-.7,1-1.6,1.5-3,1.5-1.9,0-3.1-1.2-3.1-3,0-1.9,1.2-2.8,3.2-3.1l2.7-.5v-.4c0-1-.5-1.6-1.5-1.6-.9,0-1.6.6-1.6,1.4h-2.5c.1-2.1,1.7-3.6,4.1-3.6,2.6,0,4.1,1.3,4.1,3.8Zm-2.6,2.2l-2.1.4c-.8.2-1.2.6-1.2,1.2s.4,1,1.2,1c.7,0,1.3-.3,1.7-.9.2-.4.4-.8.4-1.4v-.3h0Z"></path>
	<path class="cls-2" d="m157.5,27.7v6.7h-2.7v-6.2c0-1.2-.5-1.9-1.5-1.9s-1.8.8-1.8,2.4v5.6h-2.7v-6.2c0-1.2-.5-1.9-1.5-1.9-1.1,0-1.8.9-1.8,2.5v5.5h-2.5v-10.4h2.3l.2,1.3c.6-1,1.5-1.6,2.8-1.6,1.5,0,2.5.6,3,1.8.5-1.1,1.6-1.8,3-1.8,2,.3,3.2,1.8,3.2,4.2Z"></path>
	<path class="cls-2" d="m167.7,27.6v6.8h-2.3l-.2-1.3c-.7,1-1.6,1.5-3,1.5-1.9,0-3.1-1.2-3.1-3,0-1.9,1.2-2.8,3.2-3.1l2.7-.5v-.4c0-1-.5-1.6-1.5-1.6-.9,0-1.6.6-1.6,1.4h-2.6c.1-2.1,1.7-3.6,4.1-3.6,2.7,0,4.3,1.3,4.3,3.8Zm-2.6,2.2l-2.1.4c-.8.2-1.2.6-1.2,1.2s.4,1,1.2,1c.7,0,1.3-.3,1.7-.9.2-.4.4-.8.4-1.4v-.3h0Z"></path>
	<path class="cls-2" d="m183.8,24.1h-2.8c0-1.1-.7-1.8-1.7-1.8s-1.6.6-1.6,1.5c0,.5.2.9.5,1.1.3.3,1,.6,2,.9,3,1,4.1,2.2,4.1,4.4,0,1.3-.4,2.4-1.3,3.2-.9.8-2,1.1-3.4,1.1-3.2,0-5-1.8-5-4.6h2.8c.1,1.5.8,2.2,2.2,2.2,1.2,0,1.9-.7,1.9-1.6,0-1-.7-1.5-2.5-2.1-2.8-.9-4.1-2.1-4.1-4.4,0-1.3.4-2.3,1.2-3.1s1.9-1.2,3.3-1.2c2.6.1,4.3,1.6,4.4,4.4Z"></path>
	<path class="cls-2" d="m195.3,24l-5.3,14.8h-2.8l1.6-4.5-3.7-10.2h2.9l2,6.4.2.9.2-.9,2-6.4h2.9v-.1Z"></path>
	<path class="cls-2" d="m203.7,27.1h-2.6c0-.8-.4-1.2-1.2-1.2-.7,0-1.1.4-1.1,1,0,.7.4.9,1.8,1.2,2.5.4,3.4,1.4,3.4,3.1,0,2.2-1.7,3.4-4,3.4-2.5,0-4-1.3-4-3.4h2.6c0,.8.5,1.3,1.5,1.3.8,0,1.3-.3,1.3-1s-.4-1-1.9-1.3c-2.3-.4-3.3-1.4-3.3-3.1,0-1,.3-1.8,1-2.4.7-.7,1.6-1,2.8-1,2.1.1,3.6,1.4,3.7,3.4Z"></path>
	<path class="cls-2" d="m208.9,21.5v2.5h2.4v2.4h-2.4v4.2c0,1.1.3,1.5,1.3,1.5.4,0,.7,0,1.1-.1v2.3c-.4.1-1,.2-1.7.2-2.3,0-3.4-1-3.4-3.3v-4.8h-1.7v-2.4h1.7v-2.5h2.7Z"></path>
	<path class="cls-2" d="m222.2,29.2v.8h-7.2c.1,1.4,1,2.3,2.5,2.3,1.1,0,1.8-.4,2.1-1.2h2.6c-.7,2.2-2.3,3.5-4.7,3.5-1.5,0-2.8-.5-3.7-1.5-.9-1-1.4-2.3-1.4-3.9s.5-2.9,1.4-3.9c1-1,2.2-1.5,3.7-1.5,2.7,0,4.7,1.8,4.7,5.4Zm-2.7-1c0-1.3-.9-2.2-2.2-2.2s-2.2.9-2.3,2.2h4.5Z"></path>
	<path class="cls-2" d="m238,27.7v6.7h-2.7v-6.2c0-1.2-.5-1.9-1.5-1.9s-1.8.8-1.8,2.4v5.6h-2.7v-6.2c0-1.2-.5-1.9-1.5-1.9-1.1,0-1.8.9-1.8,2.5v5.5h-2.6v-10.4h2.3l.2,1.3c.6-1,1.5-1.6,2.8-1.6,1.5,0,2.5.6,3,1.8.5-1.1,1.6-1.8,3-1.8,2.2.3,3.3,1.8,3.3,4.2Z"></path>
	<path class="cls-2" d="m17.4,8.4c0,1.8-1,2.9-2.8,2.9h-1.5v3.9h-1.2V5.7h2.6c1.8.1,2.9,1.1,2.9,2.7Zm-1.3,0c0-1.1-.6-1.8-1.6-1.8h-1.4v3.7h1.4c1,.1,1.6-.6,1.6-1.9Z"></path>
	<path class="cls-2" d="m22.7,12.5h-3l-.8,2.7h-1.2l2.8-9.5h1.3l2.8,9.5h-1.2l-.7-2.7Zm-.2-1l-1-3.5c-.1-.3-.1-.7-.2-1.1h0c-.1.4-.1.7-.2,1.1l-1,3.5h2.4Z"></path>
	<path class="cls-2" d="m29.3,11.2h-1.4v4h-1.2V5.7h2.7c2.1,0,2.8,1.1,2.8,2.7,0,1.2-.5,2.2-1.7,2.5l1.9,4.2h-1.3l-1.8-3.9Zm-1.5-.9h1.5c1.2,0,1.6-.7,1.6-1.8s-.4-1.8-1.6-1.8h-1.4v3.6h-.1Z"></path>
	<path class="cls-2" d="m39.2,6.8h-2.4v8.5h-1.2V6.8h-2.4v-1h6v1Z"></path>
	<path class="cls-2" d="m0,25.2c0-3.4,1.2-5,3.4-5s3.4,1.6,3.4,5-1.2,5-3.4,5c-2.2-.1-3.4-1.6-3.4-5Zm5.6,0c0-2.8-.8-4-2.2-4s-2.2,1.2-2.2,4,.8,4,2.2,4c1.4-.1,2.2-1.2,2.2-4Z"></path>
	<path class="cls-2" d="m10.3,21.4v3.1h3.4v1h-3.4v4.4h-1.2v-9.5h4.8v1h-3.6Z"></path>
	<path class="cls-2" d="m23.6,21.4h-2.4v8.5h-1.2v-8.5h-2.4v-1h6v1Z"></path>
	<path class="cls-2" d="m31.7,29.9h-1.2v-4.4h-3.6v4.4h-1.2v-9.5h1.2v4.1h3.6v-4.1h1.2v9.5Z"></path>
	<path class="cls-2" d="m39.4,28.9v1h-4.9v-9.5h4.8v1h-3.6v3.1h3.4v1h-3.4v3.4h3.7Z"></path>
	<path class="cls-2" d="m239.6,33.2c0-.8.6-1.4,1.4-1.4s1.4.6,1.4,1.4-.6,1.4-1.4,1.4-1.4-.6-1.4-1.4Zm.2,0c0,.7.6,1.2,1.2,1.2.7,0,1.2-.6,1.2-1.2,0-.7-.6-1.2-1.2-1.2-.7,0-1.2.5-1.2,1.2Zm1.2.2h-.3v.6h-.2v-1.6h.7c.3,0,.5.2.5.5,0,.4-.3.5-.4.5l.4.7h-.3l-.4-.7Zm-.3-.8v.6h.5c.2,0,.3-.1.3-.3s-.1-.3-.3-.3h-.5Z"></path>
	<rect class="cls-1" x="238" y="30.5" width="1.5" height="3.7"></rect>
</svg>